<?xml version="1.0" encoding="utf-8"?>
<!-- Generator: Adobe Illustrator 19.0.0, SVG Export Plug-In . SVG Version: 6.00 Build 0)  -->
<svg version="1.1" id="layer" xmlns="http://www.w3.org/2000/svg" xmlns:xlink="http://www.w3.org/1999/xlink" x="0px" y="0px"
	 viewBox="-153 -46 652 652" style="enable-background:new -153 -46 652 652;" xml:space="preserve">
<style type="text/css">
	.st0{fill:#13AFF0;}
</style>
<path d="M50.7,220.9l19.7,58.8H59.5l-4.1-13H35.1l-4,13H20.2l19.7-58.8L50.7,220.9z M38,256.9h14.3L45,234.2L38,256.9z M78.5,279.6
	V221h24.9c10.1,0,16.2,6.2,16.2,12.9v12.4c0,4.7-3.2,9.2-8.6,11.4l9.9,21.8h-11.4l-9.3-20.5H89.4v20.5H78.5L78.5,279.6z M89.5,230.8
	v18.7h13.1c3.5,0,6.3-2,6.3-5.4v-7.7c0-3.6-3-5.5-6.8-5.5H89.5z M141.2,279.6v-49h-14.5v-9.6h38.7v9.6H152v49H141.2z M178.4,262.9
	v3.8c0,5.2,4.8,9.1,11.1,9.1h6.9c6.5,0,11.4-3.1,11.4-8.5v-4.1c0-9-32.4-10.7-32.4-26.2v-5.3c0-5.9,5.6-11.1,13.1-11.1h7.7
	c8.4,0,14.6,5.6,14.6,12v5.3h-4.8v-4.4c0-4.8-4.5-8.5-10.1-8.5h-6.7c-5,0-9,3.2-9,7.5v4.3c0,11.5,32.4,13,32.4,25.7v5.6
	c0,7.4-6.8,12-15.9,12h-7.5c-9.1,0-15.8-5.9-15.8-12.7v-4.5H178.4z M236.9,279.6v-54.3h-16.4v-4.3h36.9v4.3h-15.7v54.3H236.9z
	 M283.5,220.8l20.6,58.9h-4.8l-6.6-18.8h-23.4l-6.5,18.8h-5l20.7-58.9L283.5,220.8z M270.8,256.5h20.4L281.1,227L270.8,256.5z
	 M321.3,279.6v-54.3h-16.4v-4.3h36.9v4.3h-15.7v54.3H321.3z M352.6,279.6v-58.5h4.8v58.5H352.6z M387.5,280.1
	c-8.1,0-13.8-5.9-13.8-12.7v-34.1c0-6.8,5.9-12.7,13.8-12.7h11.6c7.9,0,13.7,5.9,13.7,12.7v34.1c0,6.8-5.8,12.7-13.7,12.7H387.5z
	 M398.7,275.7c5.2,0,9.3-3.9,9.3-9.1v-32.5c0-5.2-4.1-9.1-9.3-9.1h-10.9c-5.2,0-9.3,3.9-9.3,9.1v32.6c0,5.2,4.1,9.1,9.3,9.1h10.9
	V275.7z M429.1,279.6v-58.5h5.1l29.4,50V221h4.8v58.5h-5.1l-29.4-50v50h-4.8L429.1,279.6z"/>
<path class="st0" d="M-131.6,279.6l10.3,17.7c2.1,4,6.2,6.8,10.9,6.8h68.3l-14.1-24.5H-131.6z M-9.7,279.8c0-2.4-0.7-4.7-2-6.7
	l-40.1-69.6c-2.1-3.9-6.1-6.6-10.8-6.6h-21.2l61.9,107.1l9.8-16.9C-10.3,283.9-9.7,282.5-9.7,279.8z M-66.3,262.1l-27.6-47.8
	l-27.6,47.8H-66.3z"/>
</svg>
