<?xml version="1.0" encoding="utf-8"?>
<!-- Generator: Adobe Illustrator 19.2.1, SVG Export Plug-In . SVG Version: 6.00 Build 0)  -->
<svg version="1.1" id="layer" xmlns="http://www.w3.org/2000/svg" xmlns:xlink="http://www.w3.org/1999/xlink" x="0px" y="0px"
	 viewBox="0 0 652 652" style="enable-background:new 0 0 652 652;" xml:space="preserve">
<style type="text/css">
	.st0{fill:#292122;}
	.st1{fill:#BE891D;}
</style>
<path class="st0" d="M176.3,302.9h10.5v16.3h32.6v-16.3h10.4v42.8h-10.4v-18h-32.6v18h-10.5V302.9z M256.6,328.5l9.6-17.8l10,17.8
	H256.6z M236.4,345.7h10.4l5.4-9.4h28.3l5.4,9.4h11.7l-25.8-42.8h-10L236.4,345.7z M338.3,310.3c3.1,0,4.7,0.6,4.7,3.4v5
	c0,2.8-1.6,3.4-4.7,3.4h-23.8v-11.8H338.3z M304.2,345.7h10.3v-16.2h9.8l17.9,16.2h15l-20.3-16.2h5.9c6.9,0,10-2.3,10-8.2v-10.1
	c0-6-3.1-8.3-10-8.3h-38.5V345.7z M400,310.3c3.1,0,4.7,0.6,4.7,3.4v5c0,2.8-1.6,3.4-4.7,3.4h-23.8v-11.8H400z M365.9,345.7h10.3
	v-16.2h9.8l17.9,16.2h15l-20.3-16.2h5.9c6.9,0,10-2.3,10-8.2v-10.1c0-6-3.1-8.3-10-8.3h-38.5V345.7z M426.6,345.7H437v-42.8h-10.4
	V345.7z M477.4,310.6h20.7v-7.7h-51.8v7.7H467v35.1h10.4V310.6z M551.5,337.5H517v-26.7h34.5V337.5z M517.7,302.9
	c-8.4,0-11.1,1.9-11.1,10.1v22.6c0,8.1,2.6,10.1,11.1,10.1h33.1c8.4,0,11.1-2,11.1-10.1v-22.6c0-8.2-2.7-10.1-11.1-10.1H517.7
	 M573.8,345.7h9.5v-28.8l36.2,28.8h7.2v-42.8h-9.4v28.4L581,302.9h-7.2V345.7z M26.7,358.9c0,6.8,5.5,12.3,12.3,12.3h79
	c6.8,0,12.3-5.5,12.3-12.3v-66.6c0-6.8-5.5-12.3-12.3-12.3H39c-6.8,0-12.3,5.5-12.3,12.3V358.9z"/>
<polygon class="st1" points="43.9,298.9 57.5,298.9 57.5,320 99.7,320 99.7,298.9 113.1,298.9 113.1,354.3 99.7,354.3 99.7,331 
	57.5,331 57.5,354.3 43.9,354.3 "/>
</svg>
